<svg id="Layer_1" data-name="Layer 1" xmlns="http://www.w3.org/2000/svg" viewBox="0 0 204 177"><defs><style>.cls-1{fill:#333;}</style></defs><title>icons</title><path class="cls-1" d="M116.61,117l.34-18.76,2.18,2.26,8.29-8-5.5-5.7,41.43-40a6.65,6.65,0,0,0,0-9.29c-.08-.09-.37-.39-.38-.38l-.37-.39a6.65,6.65,0,0,0-9.28-.29l-41.43,40-5.5-5.7-8.29,8,2.34,2.42-18.76-.34a4.74,4.74,0,1,0-.17,9.48l4.38.38-6.29,2.09a4.76,4.76,0,0,0-3,6l.54,1.64a4.78,4.78,0,0,0,6,3l5.37-1.78L85,104.49a5.94,5.94,0,0,0-.27,8.26,5.78,5.78,0,0,0,8.34.11l3-3.43-2,5.32a4.79,4.79,0,0,0,2.8,6.11l1.62.6a4.76,4.76,0,0,0,6.11-2.79l2.31-6.21.22,4.4a4.74,4.74,0,0,0,9.48.17Zm-13-32.56,0,0,.08,0ZM113.79,95l.05,0,0,.08Z"/><circle class="cls-1" cx="69.58" cy="130.17" r="4.75"/><circle class="cls-1" cx="65.67" cy="111" r="4.21"/><circle class="cls-1" cx="91.13" cy="134" r="3.79"/><circle class="cls-1" cx="48.75" cy="140.17" r="4.75"/></svg>