<svg id="Layer_1" data-name="Layer 1" xmlns="http://www.w3.org/2000/svg" viewBox="0 0 204 177"><defs><style>.cls-1{fill:#333;}</style></defs><title>icons</title><path class="cls-1" d="M144,72.6v8.75a13.17,13.17,0,0,0-2-.16V72.44l.89,0,.87.08C143.93,72.56,144,72.57,144,72.6Z"/><path class="cls-1" d="M142,106.33a13.17,13.17,0,0,0,2-.16V115a18.86,18.86,0,0,1-2,.1Z"/><path class="cls-1" d="M144.49,72.6c-.16,0-.32,0-.49-.06-.37,0-.74-.07-1.11-.08l-.89,0v8.75a13.17,13.17,0,0,1,2,.16l.49.09a12.59,12.59,0,0,1,0,24.64l-.49.09a13.17,13.17,0,0,1-2,.16v8.75a18.86,18.86,0,0,0,2-.1c.17,0,.33,0,.49-.06a21.32,21.32,0,0,0,0-42.32ZM142,77h0Zm0,33h0Z"/><path class="cls-1" d="M145,110h0Z"/><path class="cls-1" d="M145.41,77h0Z"/><path class="cls-1" d="M142,106.33v8.75a18.86,18.86,0,0,0,2-.1v-8.81A13.17,13.17,0,0,1,142,106.33Zm.89-33.87-.89,0v8.75a13.17,13.17,0,0,1,2,.16V72.54C143.63,72.5,143.26,72.47,142.89,72.46ZM59.46,76.12c0-.16-.61-11.41-5.13-14.11A17,17,0,0,0,52,60.84L37.85,82a12.05,12.05,0,0,0,1.92,1.55c2.76,1.86,11.76.36,14.82-.09L76,106.5l-.25-25.37ZM144,108.37h0Z"/><path class="cls-1" d="M142.89,72.46l.87.08c.17,0,.24,0,.24.06v-.06C143.63,72.5,143.26,72.47,142.89,72.46Z"/><path class="cls-1" d="M138.49,57H80.18A5.93,5.93,0,0,0,74,62.7V63h70v-.3A5.36,5.36,0,0,0,138.49,57ZM142,72.44l.89,0c.37,0,.74,0,1.11.08V69H74v53.64A6.49,6.49,0,0,0,80.18,129h58.31c3.3,0,5.51-3.06,5.51-6.36V115a18.86,18.86,0,0,1-2,.1v-8.75a13.17,13.17,0,0,0,2-.16V81.35a13.17,13.17,0,0,0-2-.16Z"/><path class="cls-1" d="M145,77h0Zm0,33h0Z"/></svg>